<svg width="1200" height="460" viewBox="0 0 1200 460" fill="none" xmlns="http://www.w3.org/2000/svg">
  <rect width="1200" height="460" rx="24" fill="#EDF4F9"/>
  <text x="54" y="68" fill="#234B6B" font-family="Avenir Next, Segoe UI, sans-serif" font-size="38" font-weight="700">AI for Network: Closed Control Loop</text>
  <g stroke="#6D97BA" stroke-width="10" stroke-linecap="round">
    <path d="M220 242C220 166 281 104 357 104H846C922 104 983 166 983 242C983 318 922 380 846 380H357C281 380 220 318 220 242Z"/>
  </g>

  <g fill="#FFFFFF" stroke="#BFD3E5" stroke-width="2">
    <rect x="266" y="188" width="170" height="108" rx="14"/>
    <rect x="494" y="188" width="210" height="108" rx="14"/>
    <rect x="762" y="188" width="170" height="108" rx="14"/>
  </g>

  <text x="306" y="232" fill="#2F5A7F" font-family="Avenir Next, Segoe UI, sans-serif" font-size="24" font-weight="700">Observe</text>
  <text x="289" y="262" fill="#4B667D" font-family="Avenir Next, Segoe UI, sans-serif" font-size="18">Telemetry, OTDR, OSA</text>

  <text x="559" y="232" fill="#2F5A7F" font-family="Avenir Next, Segoe UI, sans-serif" font-size="24" font-weight="700">Predict</text>
  <text x="529" y="262" fill="#4B667D" font-family="Avenir Next, Segoe UI, sans-serif" font-size="18">Fault and load forecasting</text>

  <text x="807" y="232" fill="#2F5A7F" font-family="Avenir Next, Segoe UI, sans-serif" font-size="24" font-weight="700">Act</text>
  <text x="781" y="262" fill="#4B667D" font-family="Avenir Next, Segoe UI, sans-serif" font-size="18">Routing and power control</text>

  <path d="M987 220L1032 242L987 264" stroke="#6D97BA" stroke-width="8" stroke-linecap="round" stroke-linejoin="round"/>
  <path d="M213 264L168 242L213 220" stroke="#6D97BA" stroke-width="8" stroke-linecap="round" stroke-linejoin="round"/>
</svg>
