<svg width="1400" height="560" viewBox="0 0 1400 560" fill="none" xmlns="http://www.w3.org/2000/svg">
  <defs>
    <linearGradient id="bg" x1="0" y1="0" x2="1400" y2="560" gradientUnits="userSpaceOnUse">
      <stop stop-color="#10293F"/>
      <stop offset="1" stop-color="#1F4C6D"/>
    </linearGradient>
    <linearGradient id="ring" x1="278" y1="280" x2="1120" y2="280" gradientUnits="userSpaceOnUse">
      <stop stop-color="#78CCFF"/>
      <stop offset="1" stop-color="#79FFCA"/>
    </linearGradient>
  </defs>

  <rect width="1400" height="560" rx="28" fill="url(#bg)"/>
  <text x="70" y="84" fill="#E9F6FF" font-family="Avenir Next, Segoe UI, sans-serif" font-size="44" font-weight="700">AI for Network: Closed Control Loop</text>
  <text x="70" y="124" fill="#B7D5EA" font-family="Avenir Next, Segoe UI, sans-serif" font-size="24">Observe - Predict - Act - Learn</text>

  <path d="M290 280C290 190 362 118 452 118H948C1038 118 1110 190 1110 280C1110 370 1038 442 948 442H452C362 442 290 370 290 280Z" stroke="url(#ring)" stroke-width="14"/>

  <g>
    <rect x="336" y="218" width="230" height="124" rx="16" fill="#F8FCFF" stroke="#BFD3E5"/>
    <rect x="594" y="218" width="250" height="124" rx="16" fill="#F8FCFF" stroke="#BFD3E5"/>
    <rect x="872" y="218" width="200" height="124" rx="16" fill="#F8FCFF" stroke="#BFD3E5"/>

    <text x="402" y="268" fill="#2A587E" font-family="Avenir Next, Segoe UI, sans-serif" font-size="30" font-weight="700">Observe</text>
    <text x="358" y="302" fill="#47657E" font-family="Avenir Next, Segoe UI, sans-serif" font-size="20">OTDR, OSA, and traffic telemetry</text>

    <text x="672" y="268" fill="#2A587E" font-family="Avenir Next, Segoe UI, sans-serif" font-size="30" font-weight="700">Predict</text>
    <text x="618" y="302" fill="#47657E" font-family="Avenir Next, Segoe UI, sans-serif" font-size="20">Failure, demand, and congestion risk</text>

    <text x="942" y="268" fill="#2A587E" font-family="Avenir Next, Segoe UI, sans-serif" font-size="30" font-weight="700">Act</text>
    <text x="895" y="302" fill="#47657E" font-family="Avenir Next, Segoe UI, sans-serif" font-size="20">Reroute, rebalance, and optimize power</text>
  </g>

  <path d="M1114 256L1180 280L1114 304" stroke="#8CCAF0" stroke-width="8" stroke-linecap="round" stroke-linejoin="round"/>
  <path d="M286 304L220 280L286 256" stroke="#8CCAF0" stroke-width="8" stroke-linecap="round" stroke-linejoin="round"/>
</svg>
